<svg xmlns="http://www.w3.org/2000/svg" viewBox="0 0 200 200" fill="none">
  <!-- Mole Body -->
  <ellipse cx="100" cy="120" rx="60" ry="50" fill="#4A3728"/>
  
  <!-- Mole Head -->
  <ellipse cx="100" cy="80" rx="50" ry="45" fill="#5C4033"/>
  
  <!-- Ears -->
  <ellipse cx="65" cy="65" rx="15" ry="20" fill="#4A3728"/>
  <ellipse cx="135" cy="65" rx="15" ry="20" fill="#4A3728"/>
  <ellipse cx="65" cy="65" rx="8" ry="12" fill="#8B6F47"/>
  <ellipse cx="135" cy="65" rx="8" ry="12" fill="#8B6F47"/>
  
  <!-- Eyes -->
  <circle cx="85" cy="75" r="8" fill="#000"/>
  <circle cx="115" cy="75" r="8" fill="#000"/>
  <circle cx="87" cy="73" r="3" fill="#FFF"/>
  <circle cx="117" cy="73" r="3" fill="#FFF"/>
  
  <!-- Nose -->
  <ellipse cx="100" cy="90" rx="12" ry="10" fill="#CD9575"/>
  <ellipse cx="100" cy="88" rx="8" ry="6" fill="#A0826D"/>
  
  <!-- Snout -->
  <path d="M 100 90 Q 95 95 90 92 Q 95 98 100 97 Q 105 98 110 92 Q 105 95 100 90" fill="#8B6F47"/>
  
  <!-- Whiskers -->
  <line x1="55" y1="85" x2="30" y2="80" stroke="#000" stroke-width="2"/>
  <line x1="55" y1="90" x2="30" y2="95" stroke="#000" stroke-width="2"/>
  <line x1="145" y1="85" x2="170" y2="80" stroke="#000" stroke-width="2"/>
  <line x1="145" y1="90" x2="170" y2="95" stroke="#000" stroke-width="2"/>
  
  <!-- Arms/Paws -->
  <ellipse cx="55" cy="115" rx="18" ry="25" fill="#5C4033"/>
  <ellipse cx="145" cy="115" rx="18" ry="25" fill="#5C4033"/>
  
  <!-- Paw details -->
  <ellipse cx="55" cy="125" rx="12" ry="15" fill="#8B6F47"/>
  <ellipse cx="145" cy="125" rx="12" ry="15" fill="#8B6F47"/>
</svg>

